<svg width="8" height="11" viewBox="0 0 8 11" fill="none" xmlns="http://www.w3.org/2000/svg">
<g clip-path="url(#clip0_1_184)">
<path d="M1.83333 11C2.84533 11 3.66667 10.1786 3.66667 9.16665V7.33331H1.83333C0.821333 7.33331 0 8.15465 0 9.16665C0 10.1786 0.821333 11 1.83333 11Z" fill="#0ACF83"/>
<path d="M0 5.50002C0 4.48802 0.821333 3.66669 1.83333 3.66669H3.66667V7.33335H1.83333C0.821333 7.33335 0 6.51202 0 5.50002Z" fill="#A259FF"/>
<path d="M0 1.83333C0 0.821333 0.821333 0 1.83333 0H3.66667V3.66667H1.83333C0.821333 3.66667 0 2.84533 0 1.83333Z" fill="#F24E1E"/>
<path d="M3.66667 0H5.50001C6.51201 0 7.33334 0.821333 7.33334 1.83333C7.33334 2.84533 6.51201 3.66667 5.50001 3.66667H3.66667V0Z" fill="#FF7262"/>
<path d="M7.33334 5.50002C7.33334 6.51202 6.51201 7.33335 5.50001 7.33335C4.48801 7.33335 3.66667 6.51202 3.66667 5.50002C3.66667 4.48802 4.48801 3.66669 5.50001 3.66669C6.51201 3.66669 7.33334 4.48802 7.33334 5.50002Z" fill="#1ABCFE"/>
</g>
<defs>
<clipPath id="clip0_1_184">
<rect width="7.33333" height="11" fill="white"/>
</clipPath>
</defs>
</svg>
